<svg width="21" height="32" viewBox="0 0 21 32" fill="none" xmlns="http://www.w3.org/2000/svg">
<g clip-path="url(#clip0)">
<path d="M5.9097 13.775C5.53751 13.2945 5.28657 12.7297 5.17852 12.1293C5.02264 11.139 5.34183 10.3336 6.00867 9.59961C6.25611 9.32575 6.32787 8.88058 6.4652 8.50793C6.48128 8.46291 6.40705 8.38288 6.37117 8.31911C5.29234 6.41336 4.7319 4.37632 4.89273 2.17546C4.93629 1.67995 5.0763 1.19804 5.30472 0.757402C5.71051 -0.0304059 6.53572 -0.206725 7.28421 0.264709C7.87806 0.639856 8.27396 1.20258 8.61419 1.79656C9.27856 2.93825 9.66332 4.18249 9.88354 5.483C9.90457 5.60805 9.92684 5.7331 9.95035 5.86815H11.0267C11.1393 5.3517 11.2345 4.83399 11.3669 4.32505C11.7022 3.03579 12.1996 1.81657 13.099 0.817425C13.3767 0.512085 13.7136 0.26776 14.0887 0.0996449C14.6764 -0.161707 15.3123 0.0996449 15.6798 0.698629C16.114 1.3989 16.1845 2.19171 16.1524 2.98452C16.0991 4.8534 15.5808 6.67859 14.6455 8.29159C14.6145 8.34412 14.5601 8.41664 14.575 8.45791C14.6987 8.83306 14.7358 9.30074 14.9869 9.53833C16.1524 10.6325 16.1759 12.2894 15.269 13.5949C15.222 13.6612 15.1762 13.7287 15.1366 13.7862C15.5078 14.1864 15.8789 14.5578 16.2117 14.963C16.8442 15.7321 17.339 16.6067 17.6741 17.5477C17.7367 17.7436 17.8732 17.9067 18.0539 18.0016C18.8927 18.4643 19.7179 18.9533 20.5567 19.4172C20.7014 19.4847 20.822 19.5955 20.9021 19.7347C20.9822 19.8738 21.018 20.0346 21.0046 20.195C20.9304 24.2066 19.4445 27.5416 16.286 30.0176C12.7748 32.7687 7.74939 32.6374 4.35827 29.7312C1.42861 27.2265 0.0392504 23.989 -0.000339547 20.1325C-0.00979902 19.9921 0.0224905 19.8521 0.0923784 19.7304C0.162266 19.6088 0.266558 19.511 0.391848 19.4497C1.26448 18.9603 2.13298 18.4652 2.99736 17.9641C3.11813 17.8944 3.21419 17.7881 3.27202 17.6603C3.79684 16.1962 4.67902 14.8899 5.8367 13.8625C5.86304 13.8351 5.88743 13.8059 5.9097 13.775ZM10.2844 30.7354C12.7885 30.7028 14.7779 29.895 16.4332 28.2982C18.597 26.2086 19.5806 23.5813 19.7402 20.6052C19.732 20.5399 19.7094 20.4774 19.674 20.4222C19.6387 20.3671 19.5915 20.3206 19.5361 20.2863C18.8012 19.8499 18.0514 19.4372 17.3091 19.0058C17.2432 18.9596 17.1648 18.9349 17.0846 18.9349C17.0043 18.9349 16.926 18.9596 16.86 19.0058C15.9792 19.5185 15.0871 20.0137 14.205 20.5251C14.0807 20.6078 13.9351 20.6518 13.7862 20.6518C13.6374 20.6518 13.4918 20.6078 13.3675 20.5251C12.5014 20.0149 11.6119 19.5247 10.7384 19.0245C10.6684 18.9751 10.5851 18.9486 10.4997 18.9486C10.4142 18.9486 10.3309 18.9751 10.2609 19.0245C9.41465 19.5172 8.55604 19.9874 7.71475 20.4864C7.3671 20.6927 7.06771 20.7102 6.7114 20.4976C5.8664 19.9787 4.99789 19.5072 4.143 19.007C4.07722 18.9604 3.99881 18.9353 3.91845 18.9353C3.83809 18.9353 3.75968 18.9604 3.6939 19.007C2.95159 19.4439 2.19979 19.872 1.43851 20.2913C1.37282 20.3176 1.31794 20.3658 1.28287 20.4278C1.2478 20.4898 1.23463 20.5621 1.24551 20.6327C1.36923 22.7935 1.93215 24.8143 3.1483 26.61C4.91253 29.2098 7.33741 30.6441 10.2844 30.7354ZM14.9461 2.78444C14.8941 2.48433 14.8422 2.01914 14.7259 1.57147C14.6343 1.21633 14.4784 1.16506 14.231 1.43392C13.8658 1.82478 13.5489 2.25895 13.287 2.72692C12.6584 3.94749 12.2944 5.2895 12.2193 6.66346C12.1847 7.23993 11.7801 7.49253 11.2605 7.26369C11.0163 7.15237 10.7504 7.09784 10.4826 7.10412C10.2147 7.11039 9.95169 7.17732 9.71281 7.29996C9.23154 7.52755 8.81461 7.27495 8.77007 6.73974C8.7478 6.48089 8.73791 6.22079 8.69955 5.96444C8.54395 4.74615 8.16554 3.56775 7.58361 2.48933C7.38407 2.13879 7.14402 1.81347 6.86852 1.5202C6.52334 1.14505 6.37364 1.19382 6.2326 1.67526C6.17008 1.8733 6.13104 2.07815 6.11631 2.2855C5.99794 4.31409 6.54406 6.32559 7.67021 8.00898C7.75385 8.1206 7.80422 8.25403 7.8154 8.39359C7.82657 8.53315 7.7981 8.67303 7.73331 8.79679C7.59352 9.09592 7.48369 9.40843 7.40546 9.72966C7.34927 10.0149 7.19336 10.2701 6.96626 10.4487C6.38107 10.9239 6.21652 11.5554 6.49365 12.2631C6.5963 12.5335 6.73897 12.7864 6.91677 13.0134C8.03024 14.3765 9.48517 14.9454 11.1912 14.7129C11.8322 14.6365 12.4483 14.4169 12.9949 14.07C13.5414 13.7231 14.0047 13.2575 14.351 12.7071C14.909 11.8392 14.7618 11.0539 14.0083 10.3712C13.8566 10.2093 13.7406 10.0166 13.6681 9.80594C13.5258 9.46455 13.433 9.10066 13.2895 8.75928C13.2269 8.64008 13.1983 8.50565 13.2068 8.37097C13.2153 8.2363 13.2607 8.10665 13.3378 7.99648C14.3857 6.48089 14.7902 4.76022 14.9461 2.78444ZM4.55374 17.8116C5.41977 18.303 6.26353 18.7894 7.11843 19.2596C7.18771 19.2984 7.33123 19.2471 7.41907 19.1971C8.2851 18.7107 9.16473 18.2255 10.0246 17.7153C10.1645 17.6197 10.3295 17.5686 10.4984 17.5686C10.6673 17.5686 10.8323 17.6197 10.9723 17.7153C11.8383 18.2155 12.7043 18.7044 13.5704 19.2034C13.6301 19.2495 13.7025 19.2758 13.7777 19.2784C13.8528 19.2811 13.9269 19.2601 13.9898 19.2184C14.7321 18.7794 15.4917 18.3593 16.2427 17.9291C16.3093 17.8867 16.3738 17.8408 16.4357 17.7916C15.9672 16.6039 15.2148 15.5522 14.2459 14.7304C11.7529 16.4523 9.26618 16.4485 6.77202 14.7041C5.78673 15.5357 5.02395 16.6043 4.55374 17.8116Z" fill="white"/>
<path d="M10.491 10.9329C10.573 10.9303 10.6546 10.9447 10.7308 10.9752C10.807 11.0057 10.8762 11.0517 10.9342 11.1103C10.9922 11.1688 11.0376 11.2388 11.0678 11.3158C11.098 11.3929 11.1122 11.4753 11.1096 11.5582C11.119 11.646 11.1098 11.7348 11.0827 11.8187C11.0556 11.9027 11.0112 11.9799 10.9524 12.0453C10.8937 12.1106 10.8219 12.1627 10.7418 12.198C10.6617 12.2333 10.5751 12.251 10.4877 12.25C10.4003 12.249 10.3142 12.2294 10.2349 12.1923C10.1556 12.1552 10.0849 12.1016 10.0276 12.0349C9.97032 11.9682 9.92763 11.8901 9.90238 11.8055C9.87712 11.721 9.86988 11.632 9.88111 11.5444C9.88027 11.4634 9.89551 11.3831 9.92593 11.3082C9.95634 11.2333 10.0013 11.1654 10.0582 11.1083C10.1151 11.0513 10.1827 11.0064 10.257 10.9763C10.3314 10.9462 10.411 10.9314 10.491 10.9329Z" fill="white"/>
<path d="M9.64984 10.4842C9.64639 10.5643 9.62713 10.643 9.59319 10.7156C9.55924 10.7881 9.51131 10.8531 9.45219 10.9067C9.39307 10.9603 9.32397 11.0014 9.24892 11.0276C9.17387 11.0538 9.0944 11.0646 9.01517 11.0594C8.86324 11.0366 8.72513 10.9575 8.6277 10.8375C8.53027 10.7175 8.48049 10.5652 8.48806 10.4101C8.49562 10.2551 8.55998 10.1084 8.66861 9.99867C8.77724 9.88893 8.92238 9.82396 9.07579 9.81641C9.15787 9.8192 9.2385 9.83907 9.31265 9.87477C9.38679 9.91047 9.45286 9.96124 9.50673 10.0239C9.5606 10.0866 9.60111 10.1598 9.62573 10.239C9.65035 10.3182 9.65856 10.4016 9.64984 10.4842Z" fill="white"/>
<path d="M11.3543 10.4515C11.3501 10.3687 11.3627 10.2859 11.3914 10.2082C11.4202 10.1305 11.4644 10.0597 11.5213 9.99998C11.5783 9.9403 11.6468 9.89309 11.7226 9.86127C11.7983 9.82945 11.8797 9.81371 11.9618 9.81502C12.1258 9.81502 12.2832 9.88089 12.3992 9.99815C12.5152 10.1154 12.5804 10.2744 12.5804 10.4403C12.5804 10.6061 12.5152 10.7651 12.3992 10.8824C12.2832 10.9996 12.1258 11.0655 11.9618 11.0655C11.8817 11.0665 11.8023 11.0513 11.7281 11.0208C11.654 10.9903 11.5866 10.9451 11.53 10.8879C11.4734 10.8307 11.4287 10.7626 11.3985 10.6877C11.3684 10.6127 11.3533 10.5324 11.3543 10.4515Z" fill="white"/>
</g>
<defs>
<clipPath id="clip0">
<rect width="21" height="32" fill="white"/>
</clipPath>
</defs>
</svg>
