<svg width="29" height="22" viewBox="0 0 29 22" fill="none" xmlns="http://www.w3.org/2000/svg">
<path d="M28.2876 9.71442L19.0502 0.477013C18.4142 -0.159004 17.3845 -0.159004 16.7788 0.477013C16.1427 1.11303 16.1427 2.14277 16.7788 2.74851L23.2904 9.26012H1.60519C0.726878 9.26012 0 9.98699 0 10.8653C0 11.7436 0.726878 12.4705 1.60519 12.4705H23.2601L16.7788 18.9821C16.1427 19.6181 16.1427 20.6479 16.7788 21.2536C17.0816 21.5565 17.5056 21.7382 17.9296 21.7382C18.3537 21.7382 18.7474 21.5868 19.0805 21.2536L28.3482 11.9859C28.6511 11.683 28.8328 11.259 28.8328 10.835C28.7722 10.4413 28.5905 10.0173 28.2876 9.71442Z" fill="white"/>
</svg>
