<svg width="30" height="30" viewBox="0 0 30 30" fill="none" xmlns="http://www.w3.org/2000/svg">
<path d="M28.4611 11.6888H26.2492C26.015 10.889 25.6957 10.1182 25.2958 9.38714L26.8599 7.82303C27.461 7.22209 27.461 6.24761 26.8599 5.64667L24.3535 3.14018C23.7524 2.53924 22.7781 2.53924 22.1771 3.14018L20.613 4.7043C19.8818 4.30445 19.111 3.98511 18.3113 3.75091V1.53898C18.3113 0.689009 17.6223 0 16.7724 0H13.2278C12.3778 0 11.6888 0.689009 11.6888 1.53898V3.75091C10.889 3.98511 10.1182 4.30439 9.38717 4.70424L7.82306 3.14012C7.222 2.53918 6.24764 2.53918 5.6467 3.14012L3.14017 5.64661C2.53911 6.24755 2.53911 7.22203 3.14017 7.82297L4.70428 9.38709C4.30443 10.1182 3.98509 10.889 3.75089 11.6887H1.53897C0.689007 11.6888 0 12.3778 0 13.2276V16.7723C0 17.6223 0.689007 18.3113 1.53897 18.3113H3.75089C3.98509 19.111 4.30437 19.8818 4.70428 20.6129L3.14017 22.177C2.53911 22.778 2.53911 23.7525 3.14017 24.3534L5.64664 26.8599C6.2477 27.4608 7.22206 27.4608 7.823 26.8599L9.38711 25.2958C10.1182 25.6956 10.889 26.0149 11.6887 26.2491V28.461C11.6887 29.311 12.3777 30 13.2277 30H16.7723C17.6223 30 18.3113 29.311 18.3113 28.461V26.2491C19.111 26.0149 19.8819 25.6956 20.6129 25.2957L22.177 26.8598C22.7779 27.4608 23.7524 27.4608 24.3534 26.8598L26.8598 24.3533C27.4609 23.7524 27.4609 22.7779 26.8598 22.177L25.2957 20.6129C25.6956 19.8818 26.015 19.1109 26.2491 18.3112H28.461C29.311 18.3112 30 17.6222 30 16.7722V13.2276C30.0001 12.3778 29.3111 11.6888 28.4611 11.6888ZM15.0001 21.0926C11.6327 21.0926 8.90746 18.3676 8.90746 15C8.90746 11.6327 11.6324 8.90738 15.0001 8.90738C18.3673 8.90738 21.0927 11.6322 21.0927 15C21.0927 18.3673 18.3677 21.0926 15.0001 21.0926Z" fill="white"/>
</svg>
