<svg width="196" height="39" viewBox="0 0 196 39" fill="none" xmlns="http://www.w3.org/2000/svg">
<path d="M194.71 12.936C193.827 11.7562 192.89 10.8244 191.988 10.2309C191.265 9.755 190.525 9.42717 189.731 9.23111C189.062 9.06615 188.673 9.02274 187.861 9.02274C186.412 9.02274 185.204 9.26175 182.514 10.0808C180.01 10.8427 179.107 11.0736 177.858 11.2703C177.045 11.3983 175.446 11.3983 174.741 11.2704C173.607 11.0646 172.684 10.6638 171.857 10.0178C170.538 8.98766 169.779 7.32637 169.862 5.64819C169.99 3.04798 171.878 1.00166 174.808 0.2876C176.233 -0.0597719 177.576 -0.0898062 179.482 0.183054C182.03 0.547932 184.385 1.3809 186.597 2.69957C190.017 4.73912 192.785 7.88592 194.362 11.5299C194.74 12.4011 195.044 13.2511 194.98 13.2511C194.961 13.2511 194.84 13.1093 194.71 12.936Z" fill="white"/>
<path d="M166.218 33.0559C165.848 33.0162 165.172 32.8704 164.813 32.7523C163.033 32.1679 161.503 30.8367 160.172 28.7166C159.762 28.0634 159.184 26.9335 158.921 26.2711C158.294 24.6917 157.841 22.8628 157.652 21.1483C157.555 20.2758 157.589 16.981 157.695 16.981C157.71 16.981 157.895 17.1959 158.105 17.4587C158.612 18.0917 159.921 19.3924 160.505 19.8434C162.183 21.1384 163.466 21.778 166.462 22.8146C168.46 23.5056 169.422 23.9286 170.024 24.38C170.405 24.6652 170.992 25.2932 171.22 25.659C171.457 26.0397 171.695 26.5833 171.811 27.0093C171.935 27.4638 171.969 28.602 171.873 29.108C171.743 29.8031 171.446 30.4901 171.034 31.0505C170.776 31.4004 170.133 32.02 169.809 32.2292C169.268 32.5795 168.59 32.8461 167.903 32.9789C167.568 33.0436 166.542 33.0905 166.218 33.0559Z" fill="white"/>
<path d="M175.398 38.3932C173.505 38.2477 172.03 37.9702 170.518 37.4751C168.726 36.8882 167.299 36.2007 165.761 35.184C165.193 34.8081 164.335 34.1737 164.242 34.0603C164.173 33.9772 164.202 33.9825 164.812 34.1689C166.701 34.7455 169.324 34.8182 171.585 34.3569C173.898 33.8851 175.738 32.8988 177.363 31.2597C178.299 30.3158 179.051 29.2981 179.851 27.8916C180.515 26.7249 180.986 25.719 182.564 22.0993C184.557 17.5285 186.191 15.3995 188.637 14.1881C190.064 13.4812 191.525 13.1966 193.456 13.2493C194.377 13.2744 195.198 13.3471 195.259 13.4089C195.312 13.4621 195.604 14.7309 195.709 15.3649C196.176 18.1809 196.081 20.8181 195.416 23.5321C194.26 28.2438 191.34 32.4155 187.313 35.1073C186.455 35.6808 185.912 35.9955 185.042 36.4253C183.026 37.4211 180.832 38.0524 178.475 38.3154C177.913 38.378 175.872 38.4297 175.398 38.3932Z" fill="white"/>
<path fill-rule="evenodd" clip-rule="evenodd" d="M4.83348 31.4692C5.76803 31.9368 6.87074 32.275 8.03316 32.4505C10.9791 32.8952 14.1237 31.9725 16.1942 30.0557C17.9434 28.4365 18.9236 26.1386 18.9216 23.6624C18.9202 21.9523 18.392 20.4158 17.3587 19.1157C16.1964 17.6532 15.1017 17.0789 10.3076 15.4164C7.65311 14.4958 6.93496 14.1621 6.24209 13.5272C5.49173 12.8395 5.17291 12.1732 5.12119 11.1844C5.09015 10.5911 5.11276 10.3609 5.2448 9.92626C5.75754 8.23839 7.32376 7.12086 9.35064 6.99662C10.7928 6.90822 11.9652 7.34703 12.9764 8.35373C13.6398 9.01421 13.9811 9.60754 14.1927 10.4687L14.3281 11.0196L16.2991 11.0401C17.9095 11.0569 18.2775 11.0414 18.3106 10.9552C18.3606 10.8248 18.1939 9.84213 18.0187 9.2354C17.4189 7.15754 15.4423 5.01062 13.3129 4.12428C11.0979 3.20231 8.85658 3.1427 6.52969 3.94388C3.16928 5.10093 1.09409 8.01339 1.09409 11.5726C1.09409 14.4339 2.63493 16.6991 5.41173 17.9201C5.81458 18.0972 7.37587 18.6565 8.88127 19.163C11.9342 20.1901 12.7879 20.5639 13.4629 21.1691C14.3977 22.0073 14.818 22.9574 14.818 24.2325C14.818 25.5812 14.4597 26.4512 13.5099 27.4085C12.8309 28.0929 12.0214 28.5356 10.9668 28.7991C10.4132 28.9374 10.1583 28.9564 9.27061 28.9256C8.0918 28.8846 7.35726 28.6899 6.56427 28.2083C5.18316 27.3694 4.44692 26.178 3.98144 24.0286L3.94388 23.8551H1.97928C0.462981 23.8551 0.0129712 23.8771 0.00720559 23.9515C-0.0645389 24.8769 0.409161 26.7138 0.99627 27.7867C1.82686 29.3046 3.26423 30.6841 4.83348 31.4692ZM70.7674 31.4673C71.0745 31.8441 71.5913 32.17 72.0985 32.3067C73.7674 32.7566 75.4071 31.7282 75.7266 30.0311C75.8474 29.3894 75.8335 3.94828 75.7122 3.82706C75.6453 3.76012 75.0954 3.73456 73.723 3.73456C72.3506 3.73456 71.8008 3.76012 71.7338 3.82706C71.6628 3.89812 71.6413 6.3916 71.6413 14.5811C71.6413 23.0594 71.6216 25.2428 71.5449 25.242C71.4919 25.2416 70.7222 24.0361 69.8344 22.5631C61.3454 8.4788 59.0186 4.68184 58.6478 4.3087C57.8506 3.5064 56.5154 3.30096 55.4259 3.81299C54.5937 4.20414 53.9897 5.03538 53.8305 6.00872C53.7121 6.73227 53.7276 31.9695 53.8464 32.0883C53.9133 32.1552 54.4567 32.1809 55.8062 32.1809C56.8332 32.1809 57.7283 32.1598 57.7954 32.1341C57.9058 32.0917 57.9174 31.0725 57.9174 21.38C57.9174 12.8651 57.9371 10.6727 58.0137 10.6735C58.0667 10.674 58.9405 12.0529 59.9553 13.7378C67.038 25.4968 70.4163 31.0365 70.7674 31.4673ZM83.562 22.9884C85.4848 28.1342 90.1829 31.7618 95.6967 32.3583C96.2969 32.4232 98.0927 32.4071 98.7057 32.3314C101.03 32.0441 103.254 31.2416 105.064 30.0367C109.889 26.8261 112.295 21.2897 111.353 15.5679C110.374 9.62716 105.923 4.99947 100.053 3.82173C95.6479 2.93786 91.1963 4.06277 87.7752 6.92433C83.1828 10.7656 81.4556 17.351 83.562 22.9884ZM101.609 27.5132C100.638 27.9835 100.26 28.1195 99.3205 28.3374C98.6797 28.486 96.4668 28.5971 95.8895 28.5096C92.7807 28.0386 90.2949 26.4974 88.6435 24.0172C85.4363 19.2002 86.6523 12.5047 91.3406 9.16756C92.4592 8.37132 93.9471 7.74777 95.3112 7.50365C96.1344 7.35633 98.1113 7.37623 98.9558 7.54032C101.034 7.94415 102.917 8.93181 104.332 10.3598C106.509 12.5574 107.601 15.6946 107.334 18.9831C107.032 22.7081 104.864 25.9371 101.609 27.5132ZM32.6531 4.97853C32.3215 5.65265 22.363 32.0238 22.4108 32.1012C22.4901 32.2295 26.4955 32.2086 26.6028 32.0793C26.6491 32.0235 27.3166 30.2629 28.086 28.167C28.8554 26.071 29.52 24.3126 29.563 24.2593C29.6247 24.183 30.8036 24.1666 35.1625 24.1822L40.6838 24.202L42.1226 28.1244C42.914 30.2817 43.6082 32.0764 43.6654 32.1126C43.7226 32.1488 44.6639 32.1789 45.7571 32.1797C47.4719 32.1807 47.7511 32.1646 47.7902 32.0628C47.8631 31.873 37.6708 5.07705 37.367 4.65964C36.9579 4.09748 36.3783 3.74114 35.618 3.58426C34.4977 3.35309 33.1382 3.99241 32.6531 4.97853ZM35.1658 9.24743C35.2446 9.32617 39.259 20.2523 39.259 20.3879C39.259 20.4359 37.7783 20.4631 35.1702 20.4631C31.706 20.4631 31.075 20.4464 31.0394 20.3535C31.0024 20.2572 34.8513 9.5555 35.0225 9.27846C35.0667 9.20696 35.1149 9.19652 35.1658 9.24743ZM118.537 18.953C118.52 29.4463 118.536 32.0671 118.614 32.1166C118.779 32.2217 122.482 32.1954 122.59 32.0883C122.66 32.0181 122.682 30.6288 122.682 26.3066V20.6173H128.603C133.106 20.6173 134.547 20.5952 134.617 20.5248C134.748 20.3936 134.748 16.9865 134.617 16.8553C134.547 16.785 133.106 16.7628 128.603 16.7628H122.682V12.1759V7.58907H128.603C133.106 7.58907 134.547 7.56691 134.617 7.49656C134.748 7.36533 134.748 3.95829 134.617 3.82706C134.5 3.70962 121.772 3.69642 120.966 3.8129C119.964 3.95788 119.236 4.47189 118.811 5.33659L118.557 5.85125L118.537 18.953ZM142.281 3.82706C142.146 3.96164 142.146 31.9538 142.281 32.0883C142.348 32.1552 142.891 32.1809 144.241 32.1809C145.268 32.1809 146.163 32.1598 146.23 32.1341C146.341 32.0916 146.352 30.7709 146.352 17.9577C146.352 5.14451 146.341 3.82379 146.23 3.78136C146.163 3.75561 145.268 3.73456 144.241 3.73456C142.891 3.73456 142.348 3.7602 142.281 3.82706Z" fill="white"/>
</svg>
