<svg xmlns="http://www.w3.org/2000/svg" viewBox="0 0 59.26 80"><defs><style>.cls-1,.cls-2{fill:#fff;}.cls-2{opacity:0.69;}</style></defs><g id="Слой_2" data-name="Слой 2"><g id="Слой_1-2" data-name="Слой 1"><polygon class="cls-1" points="0 17.08 29.63 0 29.63 10.6 0 28.05 0 17.08"/><polygon class="cls-1" points="0 34.17 29.63 17.08 29.63 27.68 0 45.13 0 34.17"/><polygon class="cls-1" points="29.63 34.86 59.26 17.49 59.26 28.37 29.63 45.82 29.63 34.86"/><polygon class="cls-1" points="29.63 51.12 59.26 34.17 59.26 45.13 29.63 62.08 29.63 51.12"/><polygon class="cls-2" points="59.26 17.49 29.63 0.41 29.63 11 59.26 28.45 59.26 17.49"/><polygon class="cls-2" points="59.26 34.17 29.63 17.08 29.63 27.68 59.26 45.13 59.26 34.17"/><polygon class="cls-2" points="29.63 34.86 0 17.08 0 28.05 29.63 45.82 29.63 34.86"/><polygon class="cls-2" points="29.63 51.12 0 34.17 0 45.13 29.63 62.08 29.63 51.12"/><path class="cls-1" d="M12.14,75.08A6.19,6.19,0,0,1,12,76.45a5.4,5.4,0,0,1-.5,1.33,4.33,4.33,0,0,1-.89,1.14,4,4,0,0,1-1.33.78,5.17,5.17,0,0,1-1.81.3,5,5,0,0,1-1.73-.3,4.6,4.6,0,0,1-1.47-.88,4,4,0,0,1-1-1.53,5.8,5.8,0,0,1-.38-2.15A5.52,5.52,0,0,1,3.25,73a4,4,0,0,1,1-1.52,4.52,4.52,0,0,1,1.47-.85,5,5,0,0,1,1.73-.29,4.47,4.47,0,0,1,3.37,1.32A4.79,4.79,0,0,1,12.14,75.08Zm-7.95.07A4.2,4.2,0,0,0,5.08,78a3,3,0,0,0,2.45,1,3,3,0,0,0,2.36-1,4.22,4.22,0,0,0,.92-3,5.11,5.11,0,0,0-.18-1.38,4.41,4.41,0,0,0-.54-1.19,2.55,2.55,0,0,0-1-.88A3.51,3.51,0,0,0,7.5,71.3,3.45,3.45,0,0,0,6,71.63a2.59,2.59,0,0,0-1,.89,4.35,4.35,0,0,0-.55,1.22A5.34,5.34,0,0,0,4.19,75.15Z"/><path class="cls-1" d="M18.74,79.77h-1v-4a1.21,1.21,0,0,0-.4-1,1.52,1.52,0,0,0-1-.33,1.59,1.59,0,0,0-1.16.46,1.67,1.67,0,0,0-.48,1.26v3.65h-1V73.61h1v.9a2.42,2.42,0,0,1,.74-.76,2.07,2.07,0,0,1,1.2-.33,2.42,2.42,0,0,1,.45,0,2.62,2.62,0,0,1,.65.25,1.77,1.77,0,0,1,.65.56,2.78,2.78,0,0,1,.38,1.6Z"/><path class="cls-1" d="M21.23,76.88V77a2.57,2.57,0,0,0,.5,1.53,1.72,1.72,0,0,0,1.5.69,1.38,1.38,0,0,0,1.1-.44,2.24,2.24,0,0,0,.52-1l1.06.14A2.72,2.72,0,0,1,23.12,80,3,3,0,0,1,21,79.14a3.28,3.28,0,0,1-.87-2.51,3.62,3.62,0,0,1,.28-1.48,2.61,2.61,0,0,1,.73-1,3.36,3.36,0,0,1,.95-.54,3,3,0,0,1,1-.18,2.76,2.76,0,0,1,2,.81,3.32,3.32,0,0,1,.84,2.48v.17Zm0-.76h3.51a1.91,1.91,0,0,0-.5-1.34A1.61,1.61,0,0,0,23,74.23a1.5,1.5,0,0,0-1.23.54A2.39,2.39,0,0,0,21.26,76.12Z"/><path class="cls-1" d="M34.85,76.26l1.24.16a4.87,4.87,0,0,1-.41,1.2,5.49,5.49,0,0,1-.79,1.15,3.62,3.62,0,0,1-1.29.89,4.38,4.38,0,0,1-1.76.34,3.84,3.84,0,0,1-3.08-1.33,5.23,5.23,0,0,1-1.15-3.52,5.13,5.13,0,0,1,1.17-3.51A4,4,0,0,1,32,70.31a4.1,4.1,0,0,1,2.51.73,4,4,0,0,1,1.43,2.09l-1.16.25a3,3,0,0,0-1-1.48,3,3,0,0,0-4.1.43,4.36,4.36,0,0,0-.81,2.76A4.28,4.28,0,0,0,29.75,78a3,3,0,0,0,4.11.3A3.14,3.14,0,0,0,34.85,76.26Z"/><path class="cls-1" d="M45.24,79.77H43.77l-2.52-3.92H38.88v3.92H37.67V70.54h4.16a3.32,3.32,0,0,1,2.19.68,2.49,2.49,0,0,1,.8,2,2.76,2.76,0,0,1-.5,1.65,2.47,2.47,0,0,1-1.67.89Zm-6.36-5h2.71c1.34,0,2-.52,2-1.58A1.57,1.57,0,0,0,43.12,72a1.91,1.91,0,0,0-1.36-.45H38.88Z"/><path class="cls-1" d="M55.66,79.77H54.43L54.6,72l-2.91,7.74h-.95l-2.86-7.62C48,77,48,79.58,48,79.77H46.8V70.54h1.6l2.82,7.57,2.85-7.57h1.59Z"/></g></g></svg>