<svg width="40" height="52" viewBox="0 0 40 52" fill="none" xmlns="http://www.w3.org/2000/svg">
<path d="M6.96889 15.1294L0.90332 18.5954L19.9665 29.4887L19.8427 22.5566L6.96889 15.1294Z" fill="#909BC9"/>
<path d="M20.0898 11.6638V18.5959L32.9637 26.2707L39.1531 22.8047L20.0898 11.6638Z" fill="#929AC9"/>
<path d="M20.0903 18.5959V11.6638L1.02711 22.4333L0.90332 29.4892L20.0903 18.5959Z" fill="#48569F"/>
<path d="M39.1526 18.5959V11.6638L19.8418 22.5571L19.9656 29.4892L39.1526 18.5959Z" fill="#48569F"/>
<path d="M39.1538 29.7363V22.8042L19.9668 33.4499V40.6295L39.1538 29.7363Z" fill="#48569F"/>
<path d="M6.72131 26.1465L0.90332 29.4887L19.9665 40.6296V33.4499L6.72131 26.1465Z" fill="#909BC9"/>
<path d="M20.0913 7.70259V0.770508L0.904297 11.54V18.5959L20.0913 7.70259Z" fill="#48569F"/>
<path d="M20.0898 0.770264V7.70234L32.8399 15.2534L39.2768 11.6635L20.0898 0.770264Z" fill="#929AC9"/>
<path d="M5.35948 44.6433C6.45672 44.6433 7.26908 44.9959 7.79654 45.7011C8.20836 46.2511 8.41427 46.9548 8.41427 47.8123C8.41427 48.7403 8.17874 49.5118 7.70769 50.1267C7.15484 50.8488 6.36646 51.2098 5.34256 51.2098C4.38635 51.2098 3.63464 50.8939 3.08743 50.2621C2.59946 49.6528 2.35547 48.8828 2.35547 47.952C2.35547 47.1114 2.5642 46.3921 2.98166 45.7941C3.51758 45.0269 4.31019 44.6433 5.35948 44.6433ZM5.4441 50.4567C6.18594 50.4567 6.72187 50.1916 7.05188 49.6613C7.38472 49.1282 7.55114 48.5161 7.55114 47.825C7.55114 47.0945 7.35934 46.5064 6.97573 46.0607C6.59494 45.615 6.07311 45.3922 5.41025 45.3922C4.76714 45.3922 4.2425 45.6136 3.83632 46.0565C3.43014 46.4965 3.22706 47.1467 3.22706 48.007C3.22706 48.6952 3.40053 49.2763 3.74747 49.7501C4.09723 50.2212 4.66278 50.4567 5.4441 50.4567Z" fill="#4855A2"/>
<path d="M9.3197 46.4965H10.0432V47.1396C10.2576 46.8745 10.4846 46.6841 10.7244 46.5684C10.9642 46.4528 11.2307 46.3949 11.5241 46.3949C12.1672 46.3949 12.6016 46.6192 12.8272 47.0677C12.9513 47.3131 13.0134 47.6642 13.0134 48.1212V51.0279H12.2391V48.172C12.2391 47.8955 12.1982 47.6727 12.1164 47.5035C11.981 47.2214 11.7356 47.0804 11.3802 47.0804C11.1997 47.0804 11.0516 47.0987 10.9359 47.1354C10.7272 47.1974 10.5439 47.3215 10.3859 47.5077C10.259 47.6572 10.1758 47.8123 10.1363 47.9731C10.0996 48.1311 10.0813 48.3581 10.0813 48.6543V51.0279H9.3197V46.4965Z" fill="#4855A2"/>
<path d="M16.0301 46.3949C16.3516 46.3949 16.6633 46.4711 16.9651 46.6234C17.2669 46.7729 17.4968 46.9675 17.6548 47.2073C17.8071 47.4358 17.9086 47.7023 17.9594 48.007C18.0045 48.2157 18.0271 48.5485 18.0271 49.0055H14.7058C14.7199 49.4652 14.8285 49.8348 15.0316 50.114C15.2346 50.3904 15.5492 50.5286 15.9751 50.5286C16.3728 50.5286 16.6901 50.3975 16.9271 50.1352C17.0624 49.9828 17.1583 49.8065 17.2148 49.6063H17.9636C17.9439 49.7727 17.8776 49.9589 17.7648 50.1648C17.6548 50.3679 17.5307 50.5343 17.3925 50.664C17.1612 50.8897 16.8749 51.042 16.5336 51.121C16.3502 51.1661 16.1429 51.1887 15.9116 51.1887C15.3475 51.1887 14.8694 50.9842 14.4773 50.5752C14.0852 50.1634 13.8892 49.5879 13.8892 48.8489C13.8892 48.1212 14.0866 47.5303 14.4815 47.0761C14.8764 46.622 15.3926 46.3949 16.0301 46.3949ZM17.2444 48.4004C17.2133 48.0704 17.1414 47.8067 17.0286 47.6092C16.8199 47.2426 16.4715 47.0592 15.9835 47.0592C15.6338 47.0592 15.3404 47.1861 15.1035 47.44C14.8666 47.691 14.741 48.0112 14.7269 48.4004H17.2444Z" fill="#4855A2"/>
<path d="M21.6869 44.6433C22.4739 44.6433 23.0846 44.8506 23.519 45.2653C23.9533 45.6799 24.1945 46.151 24.2425 46.6784H23.4216C23.3286 46.2779 23.1424 45.9606 22.8632 45.7264C22.5867 45.4923 22.1975 45.3753 21.6954 45.3753C21.0833 45.3753 20.5883 45.5911 20.2103 46.0226C19.8352 46.4514 19.6476 47.11 19.6476 47.9985C19.6476 48.7262 19.8168 49.3172 20.1553 49.7713C20.4966 50.2226 21.0043 50.4482 21.6785 50.4482C22.299 50.4482 22.7715 50.2099 23.0959 49.7332C23.2679 49.4822 23.3963 49.1522 23.4809 48.7432H24.3017C24.2284 49.3976 23.9858 49.9462 23.574 50.389C23.0803 50.9221 22.4147 51.1887 21.5769 51.1887C20.8548 51.1887 20.2484 50.9701 19.7576 50.5329C19.1117 49.9546 18.7887 49.0619 18.7887 47.8546C18.7887 46.9379 19.0313 46.1862 19.5164 45.5995C20.0411 44.962 20.7646 44.6433 21.6869 44.6433Z" fill="#4855A2"/>
<path d="M28.2196 47.66C28.6145 47.66 28.9262 47.581 29.1547 47.4231C29.386 47.2651 29.5016 46.9802 29.5016 46.5684C29.5016 46.1256 29.3408 45.8238 29.0193 45.663C28.8472 45.5784 28.6173 45.5361 28.3296 45.5361H26.2733V47.66H28.2196ZM25.4314 44.8126H28.3085C28.7823 44.8126 29.173 44.8817 29.4804 45.0199C30.0643 45.285 30.3563 45.7744 30.3563 46.488C30.3563 46.8604 30.2787 47.165 30.1236 47.4019C29.9712 47.6389 29.7569 47.8293 29.4804 47.9731C29.723 48.0718 29.905 48.2016 30.0262 48.3624C30.1504 48.5231 30.2195 48.7841 30.2336 49.1451L30.2632 49.9786C30.2716 50.2155 30.2914 50.3918 30.3224 50.5075C30.3732 50.7049 30.4634 50.8319 30.5932 50.8883V51.0279H29.5608C29.5326 50.9743 29.5101 50.9052 29.4931 50.8206C29.4762 50.736 29.4621 50.5724 29.4508 50.3298L29.4001 49.2932C29.3803 48.887 29.2294 48.6148 28.9473 48.4766C28.7866 48.4004 28.5341 48.3624 28.19 48.3624H26.2733V51.0279H25.4314V44.8126Z" fill="#4855A2"/>
<path d="M31.5706 44.8126H32.7764L34.5619 50.0675L36.3347 44.8126H37.5278V51.0279H36.7282V47.3596C36.7282 47.2327 36.731 47.0225 36.7366 46.7292C36.7423 46.4358 36.7451 46.1213 36.7451 45.7857L34.9723 51.0279H34.1388L32.3533 45.7857V45.9761C32.3533 46.1284 32.3561 46.3611 32.3618 46.6742C32.3702 46.9845 32.3745 47.2129 32.3745 47.3596V51.0279H31.5706V44.8126Z" fill="#4855A2"/>
</svg>
