<svg width="25" height="31" viewBox="0 0 25 31" fill="none" xmlns="http://www.w3.org/2000/svg">
<path d="M21.7214 11.8347C22.4578 11.8357 23.1642 12.1305 23.6854 12.6552C24.2067 13.1801 24.5 13.8921 24.5 14.6351V27.704C24.5 28.4464 24.2067 29.1579 23.6854 29.682C23.1642 30.2061 22.458 30.5 21.7221 30.5H3.2779H3.27722C2.91276 30.5005 2.55172 30.4287 2.21475 30.2886L2.02282 30.7503L2.21475 30.2886C1.87778 30.1485 1.57142 29.9429 1.31331 29.6833C1.05519 29.4238 0.850392 29.1154 0.710776 28.7759C0.57116 28.4363 0.499511 28.0723 0.500003 27.7047V27.704L0.500003 14.6351L0.500003 14.6344C0.499512 14.2669 0.571027 13.9029 0.710398 13.5632C0.849767 13.2236 1.05422 12.9151 1.31196 12.6553C1.56969 12.3954 1.87565 12.1893 2.2123 12.0486C2.54894 11.9078 2.90976 11.8352 3.27417 11.8347H21.7214ZM21.7214 11.8347H21.7221V11.3347L21.7214 11.8347ZM21.1781 6.97246V6.97277L21.6781 6.97246H21.1781ZM14.748 0.5H14.7483V0L14.7477 0.5C14.7478 0.5 14.7479 0.5 14.748 0.5ZM10.2476 0.5C10.2477 0.5 10.2478 0.5 10.2479 0.5L10.2473 0V0.5H10.2476ZM3.8131 6.97271V6.97246H3.3131L3.8131 6.97308C3.8131 6.97296 3.8131 6.97284 3.8131 6.97271ZM10.2297 4.31347L10.2286 4.31347C9.52641 4.31492 8.8539 4.59608 8.35818 5.09454C7.86256 5.5929 7.58397 6.26783 7.58254 6.97144L7.58255 6.97397L7.59575 11.3362L7.59725 11.8347H8.09574H16.8955H17.3955V11.3347L17.3955 6.97246L17.3955 6.97144C17.394 6.26783 17.1154 5.5929 16.6198 5.09454L16.2653 5.44711L16.6198 5.09453C16.1241 4.59608 15.4516 4.31492 14.7494 4.31347H14.7483L10.2297 4.31347Z" stroke="white"/>
</svg>
