<svg width="13" height="19" viewBox="0 0 13 19" fill="none" xmlns="http://www.w3.org/2000/svg">
<path d="M4.95703 15.4722H8.59473V19H4.95703V15.4722ZM0.501465 6.68311C0.599121 4.36377 1.40885 2.71989 2.93066 1.75146C3.89095 1.13298 5.07096 0.82373 6.4707 0.82373C8.3099 0.82373 9.83577 1.26318 11.0483 2.14209C12.269 3.021 12.8794 4.32308 12.8794 6.04834C12.8794 7.10628 12.6149 7.9974 12.0859 8.72168C11.7767 9.16113 11.1826 9.72266 10.3037 10.4062L9.43701 11.0776C8.96501 11.4438 8.65169 11.8711 8.49707 12.3594C8.39941 12.6686 8.34652 13.1488 8.33838 13.7998H5.04248C5.09131 12.4245 5.22152 11.4764 5.43311 10.9556C5.64469 10.4266 6.18994 9.82031 7.06885 9.13672L7.95996 8.44092C8.25293 8.22119 8.48893 7.98112 8.66797 7.7207C8.99349 7.27311 9.15625 6.78076 9.15625 6.24365C9.15625 5.62516 8.97314 5.06364 8.60693 4.55908C8.24886 4.04639 7.58968 3.79004 6.62939 3.79004C5.68538 3.79004 5.014 4.10335 4.61523 4.72998C4.22461 5.35661 4.0293 6.00765 4.0293 6.68311H0.501465Z" fill="white"/>
</svg>
